<?xml version="1.0" standalone="no"?>
<!DOCTYPE svg PUBLIC "-//W3C//DTD SVG 20010904//EN"
 "http://www.w3.org/TR/2001/REC-SVG-20010904/DTD/svg10.dtd">
<svg version="1.0" xmlns="http://www.w3.org/2000/svg"
 width="480.000000pt" height="480.000000pt" viewBox="0 0 480.000000 480.000000"
 preserveAspectRatio="xMidYMid meet">

<g transform="translate(0.000000,480.000000) scale(0.100000,-0.100000)"
fill="#000000" stroke="none">
<path d="M2185 4629 c-228 -24 -490 -100 -700 -203 -648 -319 -1082 -945
-1155 -1665 -5 -57 -10 -252 -10 -433 l0 -330 -68 -73 c-108 -118 -188 -269
-229 -431 -24 -95 -24 -333 0 -428 102 -406 422 -687 847 -742 44 -5 63 -14
99 -45 264 -233 686 -99 776 246 22 87 23 1422 0 1508 -67 259 -329 417 -580
352 -72 -19 -143 -57 -199 -106 -37 -33 -52 -39 -122 -48 -43 -6 -104 -18
-134 -26 -30 -8 -59 -15 -64 -15 -4 0 -6 129 -3 288 5 327 18 425 86 630 85
257 213 471 400 665 787 818 2109 700 2739 -244 149 -223 249 -502 282 -784
11 -103 14 -555 3 -555 -5 0 -33 7 -63 15 -30 8 -91 20 -134 26 -70 9 -85 15
-122 48 -269 237 -688 105 -779 -246 -23 -86 -22 -1421 0 -1508 48 -184 202
-326 390 -358 131 -22 284 22 386 112 36 31 55 40 99 45 372 48 673 275 804
607 77 196 86 428 24 628 -42 137 -141 302 -237 396 l-41 39 0 332 c0 183 -5
378 -10 435 -100 991 -878 1769 -1869 1869 -118 11 -299 11 -416 -1z m-817
-2576 c14 -10 35 -32 46 -47 21 -27 21 -36 21 -726 0 -690 0 -699 -21 -726
-39 -53 -71 -69 -134 -69 -63 0 -95 16 -134 69 -21 27 -21 39 -24 699 -2 370
0 686 3 704 7 40 49 91 90 109 40 19 120 12 153 -13z m2240 0 c14 -10 35 -32
46 -47 21 -27 21 -36 21 -726 0 -690 0 -699 -21 -726 -39 -53 -71 -69 -134
-69 -63 0 -95 16 -134 69 -21 27 -21 39 -24 699 -2 370 0 686 3 704 7 40 49
91 90 109 40 19 120 12 153 -13z m-2810 -1082 l-3 -310 -65 26 c-181 72 -310
207 -378 395 -23 64 -26 88 -26 198 0 110 3 134 26 198 68 189 196 322 378
395 l65 26 3 -310 c1 -170 1 -448 0 -618z m3389 843 c217 -138 331 -407 280
-656 -46 -222 -196 -396 -410 -476 l-57 -22 0 620 0 620 64 -24 c36 -14 91
-41 123 -62z"/>
</g>
</svg>
