<svg width="90" height="33" fill="none" xmlns="http://www.w3.org/2000/svg">
  <g clip-path="url(#a)">
    <path d="m46.465 10.93 4.282-.273c.098.691.277 1.206.57 1.575.472.579 1.123.868 1.986.868.635 0 1.14-.144 1.482-.45a1.267 1.267 0 0 0 .033-2.025c-.326-.29-1.091-.579-2.296-.836-1.97-.434-3.387-1.013-4.217-1.752a3.473 3.473 0 0 1-1.27-2.78c0-.74.228-1.48.651-2.09a4.272 4.272 0 0 1 1.954-1.544c.863-.37 2.068-.562 3.582-.562 1.856 0 3.272.337 4.25 1.029.976.675 1.562 1.768 1.741 3.263l-4.233.24c-.114-.642-.342-1.108-.716-1.414-.375-.305-.863-.45-1.498-.45-.521 0-.912.113-1.172.322-.245.192-.407.482-.391.803 0 .241.13.466.326.611.211.193.716.37 1.514.53 1.97.418 3.37.836 4.233 1.27.863.434 1.481.965 1.856 1.592.39.643.586 1.382.57 2.138 0 .9-.261 1.8-.782 2.555a4.925 4.925 0 0 1-2.165 1.768c-.928.402-2.1.611-3.5.611-2.475 0-4.185-.466-5.145-1.414-.96-.949-1.53-2.138-1.645-3.585Zm-45.44 4.758V1.318h7.506c1.384 0 2.458.112 3.191.354a3.368 3.368 0 0 1 1.775 1.318c.472.69.7 1.495.684 2.33a3.833 3.833 0 0 1-1.938 3.472 5.008 5.008 0 0 1-1.58.563c.408.113.815.305 1.173.53.277.226.505.483.716.756.245.273.456.579.635.9l2.182 4.163h-5.112l-2.41-4.42c-.309-.563-.57-.932-.814-1.11a1.95 1.95 0 0 0-1.107-.337h-.39v5.835h-4.51v.016Zm4.51-8.551H7.44a7.326 7.326 0 0 0 1.189-.193c.293-.048.553-.21.732-.45A1.416 1.416 0 0 0 9.2 4.597c-.293-.241-.863-.37-1.677-.37H5.535v2.91ZM0 28l4.282-.273c.098.69.277 1.205.57 1.575.456.578 1.123.884 1.986.884.635 0 1.14-.145 1.481-.45.326-.257.521-.627.521-1.029 0-.386-.179-.755-.488-.996-.326-.29-1.09-.58-2.312-.836-1.97-.434-3.386-1.013-4.217-1.752a3.473 3.473 0 0 1-1.27-2.781c0-.74.228-1.479.652-2.09a4.27 4.27 0 0 1 1.953-1.543c.863-.37 2.068-.563 3.582-.563 1.856 0 3.273.338 4.25 1.03.976.69 1.546 1.767 1.725 3.262l-4.233.241c-.114-.643-.342-1.109-.716-1.414-.358-.305-.863-.45-1.498-.434-.52 0-.912.112-1.172.337a.93.93 0 0 0-.39.804c0 .241.13.466.325.61.211.194.716.37 1.514.531 1.97.418 3.37.836 4.233 1.27.863.434 1.481.965 1.856 1.592a4.09 4.09 0 0 1 .586 2.121c0 .9-.277 1.784-.782 2.54a4.926 4.926 0 0 1-2.165 1.768c-.928.402-2.1.611-3.5.611-2.475 0-4.184-.466-5.145-1.414C.668 30.637.13 29.448 0 28Z" fill="#fff"/>
    <path d="m21.653 26.876 3.94 1.173a7.215 7.215 0 0 1-1.253 2.733 5.444 5.444 0 0 1-2.117 1.655c-.846.37-1.92.563-3.223.563-1.58 0-2.882-.225-3.875-.675-1.01-.45-1.873-1.254-2.605-2.395-.733-1.141-1.09-2.604-1.09-4.388 0-2.38.634-4.212 1.92-5.482 1.286-1.27 3.094-1.912 5.438-1.912 1.84 0 3.272.37 4.33 1.093 1.043.74 1.824 1.864 2.345 3.375l-3.972.868a3.46 3.46 0 0 0-.44-.964 2.575 2.575 0 0 0-.928-.788 2.661 2.661 0 0 0-1.221-.273c-1.026 0-1.807.402-2.345 1.222-.406.594-.618 1.543-.618 2.829 0 1.59.244 2.684.733 3.279.488.595 1.172.884 2.067.884.863 0 1.514-.241 1.954-.707.44-.499.765-1.19.96-2.09Zm9.199-8.487h4.494v5.031h4.916v-5.031h4.526v14.37h-4.526V26.94h-4.916v5.819h-4.494v-14.37Z" fill="#fff"/>
    <path d="M44.17 25.574c0-2.347.667-4.18 1.986-5.481 1.319-1.302 3.175-1.961 5.535-1.961 2.426 0 4.282.643 5.601 1.928 1.319 1.286 1.97 3.087 1.97 5.401 0 1.688-.293 3.054-.863 4.131a6.059 6.059 0 0 1-2.475 2.508c-1.09.595-2.442.9-4.053.9-1.645 0-2.996-.257-4.07-.772a6.172 6.172 0 0 1-2.622-2.443c-.667-1.125-1.01-2.523-1.01-4.211Zm4.493.016c0 1.447.277 2.491.814 3.134.538.627 1.286.949 2.23.949.961 0 1.71-.306 2.247-.932.538-.627.798-1.736.798-3.344 0-1.35-.277-2.347-.83-2.958-.554-.627-1.303-.932-2.247-.932a2.773 2.773 0 0 0-2.181.948c-.554.627-.83 1.672-.83 3.135Zm15.206-.016c0-2.347.668-4.18 1.987-5.481 1.318-1.302 3.174-1.961 5.535-1.961 2.426 0 4.298.643 5.6 1.928 1.303 1.286 1.97 3.087 1.97 5.401 0 1.688-.292 3.054-.862 4.131a6.058 6.058 0 0 1-2.475 2.508c-1.09.595-2.442.9-4.054.9-1.644 0-2.995-.257-4.07-.772a6.172 6.172 0 0 1-2.621-2.443c-.668-1.125-1.01-2.523-1.01-4.211Zm4.494.016c0 1.447.277 2.491.814 3.134.537.627 1.286.949 2.23.949.961 0 1.71-.306 2.247-.932.537-.627.798-1.736.798-3.344 0-1.35-.277-2.347-.83-2.958-.554-.627-1.303-.932-2.247-.932a2.75 2.75 0 0 0-2.182.948c-.553.627-.83 1.672-.83 3.135Z" fill="#fff"/>
    <path d="M78.49 18.389h4.493v10.834H90v3.536H78.473v-14.37h.017Z" fill="#fff"/>
    <path d="M73.537 17.56c4.524-3.367 5.919-9.072 3.116-12.745C73.85 1.143 67.91.895 63.386 4.26c-4.524 3.366-5.92 9.072-3.116 12.744 2.803 3.673 8.743 3.921 13.267.555Z" stroke="#fff" stroke-miterlimit="10"/>
    <path d="m63.886 9.853 1.628-1.125 2.002 2.813c.342.45.603.932.798 1.463.114.402.081.836-.081 1.222a2.625 2.625 0 0 1-1.01 1.173c-.537.37-.993.579-1.384.643a1.95 1.95 0 0 1-1.123-.16 2.71 2.71 0 0 1-.993-.82l1.4-1.287c.114.177.26.338.423.467.114.08.244.128.391.128a.518.518 0 0 0 .31-.112.53.53 0 0 0 .26-.482 1.606 1.606 0 0 0-.342-.756l-2.28-3.167Zm4.884 1.785 1.481-1.158c.163.193.375.338.603.418.325.097.667.032.944-.177.195-.128.358-.305.423-.53a.562.562 0 0 0-.358-.707.48.48 0 0 0-.146-.032c-.196-.017-.538.064-1.042.273-.83.337-1.482.466-1.97.418a1.575 1.575 0 0 1-1.172-.691 1.719 1.719 0 0 1-.31-.917c0-.37.098-.74.31-1.044.309-.434.683-.804 1.14-1.094.683-.466 1.285-.69 1.806-.69.521 0 1.01.24 1.466.739l-1.466 1.141a.886.886 0 0 0-1.22-.16l-.05.047a.792.792 0 0 0-.341.418.414.414 0 0 0 .065.386c.065.08.162.145.276.145.13.016.359-.048.684-.193.814-.338 1.433-.53 1.856-.595a1.896 1.896 0 0 1 1.075.113c.31.128.57.353.749.627.228.321.358.707.374 1.109.016.418-.097.82-.325 1.173a3.958 3.958 0 0 1-1.108 1.093c-.895.61-1.628.868-2.214.772a2.395 2.395 0 0 1-1.53-.884Z" fill="#fff"/>
  </g>
  <defs>
    <clipPath id="a">
      <path fill="#fff" d="M0 0h90v33H0z"/>
    </clipPath>
  </defs>
</svg>