<?xml version="1.0" standalone="no"?>
<!DOCTYPE svg PUBLIC "-//W3C//DTD SVG 20010904//EN"
 "http://www.w3.org/TR/2001/REC-SVG-20010904/DTD/svg10.dtd">
<svg version="1.0" xmlns="http://www.w3.org/2000/svg"
 width="512.000000pt" height="512.000000pt" viewBox="0 0 512.000000 512.000000"
 preserveAspectRatio="xMidYMid meet">

<g transform="translate(0.000000,512.000000) scale(0.100000,-0.100000)"
fill="#000000" stroke="none">
<path d="M2518 4894 c-43 -23 -50 -69 -46 -316 l3 -220 28 -24 c16 -13 41 -24
57 -24 16 0 41 11 57 24 l28 24 3 220 c4 250 -3 294 -48 317 -36 18 -47 18
-82 -1z"/>
<path d="M1589 4611 c-16 -16 -29 -39 -29 -51 0 -11 23 -78 51 -148 60 -147
92 -188 143 -178 37 7 76 48 76 79 -1 39 -108 281 -135 305 -36 30 -71 28
-106 -7z"/>
<path d="M3421 4613 c-38 -40 -134 -276 -126 -313 8 -35 33 -58 72 -66 50 -10
83 31 142 178 28 69 51 136 51 148 0 30 -53 80 -85 80 -16 0 -38 -11 -54 -27z"/>
<path d="M756 4159 c-21 -16 -26 -29 -26 -62 0 -40 5 -46 173 -214 151 -151
177 -173 204 -173 47 0 85 37 86 84 1 36 -7 45 -174 212 -191 190 -206 198
-263 153z"/>
<path d="M4097 4002 c-196 -198 -202 -208 -148 -263 21 -20 39 -29 62 -29 29
0 53 20 205 172 183 182 197 203 170 256 -17 33 -34 42 -80 42 -28 0 -53 -21
-209 -178z"/>
<path d="M2331 4038 c-173 -21 -406 -97 -571 -185 -158 -85 -261 -161 -394
-291 -297 -293 -470 -660 -506 -1081 -23 -264 30 -580 136 -810 19 -41 32 -76
29 -79 -18 -18 -488 -77 -695 -88 -156 -8 -192 -16 -224 -55 -34 -40 -41 -72
-27 -118 9 -32 43 -64 211 -204 110 -92 200 -171 200 -177 0 -5 -48 -136 -106
-292 -115 -309 -121 -343 -74 -393 53 -57 86 -56 431 11 416 81 838 213 1224
384 l113 50 83 -21 c255 -63 548 -63 803 1 l82 20 90 -41 c426 -197 1018 -370
1506 -440 100 -14 132 -6 173 43 41 49 35 82 -80 388 -58 154 -105 285 -105
290 0 6 90 85 200 176 170 141 201 171 211 204 15 50 5 86 -35 126 -37 37 -40
37 -281 53 -221 15 -614 67 -631 84 -3 3 6 27 19 54 37 72 93 244 119 363 20
93 22 133 22 340 0 205 -3 248 -22 334 -74 333 -220 608 -447 844 -328 342
-763 525 -1236 521 -79 -1 -177 -6 -218 -11z m537 -187 c206 -44 407 -131 573
-246 117 -81 310 -278 388 -394 414 -623 338 -1427 -184 -1946 -60 -60 -146
-135 -190 -167 -177 -125 -392 -217 -608 -260 -159 -32 -425 -31 -577 1 -421
89 -762 318 -992 666 -259 391 -323 888 -171 1335 139 410 458 754 855 920
117 49 245 86 363 105 128 21 418 13 543 -14z m-1683 -2509 c33 -48 110 -136
170 -197 120 -119 238 -209 394 -296 l100 -56 -167 -65 c-369 -146 -742 -248
-1175 -322 l-37 -7 22 58 c92 249 167 446 171 450 3 2 68 15 144 29 219 37
294 58 320 89 26 29 29 55 11 88 -28 54 -54 57 -200 23 -144 -34 -314 -59
-331 -49 -8 4 -76 60 -152 123 l-138 115 49 7 c27 3 107 12 179 18 129 11 438
54 505 70 68 16 72 14 135 -78z m3035 53 c85 -14 225 -32 310 -40 85 -9 182
-19 214 -23 l59 -7 -138 -115 c-76 -63 -144 -119 -152 -123 -17 -10 -187 15
-331 49 -146 34 -172 31 -200 -23 -18 -33 -15 -59 11 -88 25 -29 141 -61 345
-94 62 -10 115 -21 118 -24 5 -4 78 -195 172 -450 l22 -58 -37 6 c-415 70
-828 185 -1194 331 l-147 58 92 51 c245 136 471 337 599 537 30 46 34 49 67
43 19 -3 105 -17 190 -30z"/>
<path d="M2520 3698 c-28 -15 -27 -12 -234 -438 l-153 -315 -369 -54 c-444
-64 -443 -64 -466 -93 -43 -56 -41 -59 277 -378 l296 -296 -66 -385 c-36 -212
-65 -400 -65 -417 0 -42 38 -82 79 -82 19 0 154 66 386 190 l356 190 355 -190
c231 -123 366 -190 386 -190 40 0 78 40 78 81 0 18 -29 206 -66 418 l-65 384
295 297 c213 213 296 302 296 318 0 37 -28 81 -56 88 -14 4 -200 32 -412 63
l-386 57 -176 362 c-97 200 -183 369 -191 377 -21 21 -70 27 -99 13z m195
-584 c131 -269 153 -308 180 -320 23 -10 629 -105 670 -104 5 0 -104 -114
-243 -253 -138 -139 -252 -257 -252 -262 0 -6 25 -160 56 -343 31 -183 54
-335 51 -339 -3 -3 -138 65 -299 151 -162 86 -305 156 -318 156 -12 0 -155
-70 -317 -156 -162 -86 -296 -154 -300 -151 -3 3 20 154 51 335 31 181 56 335
56 343 0 7 -114 127 -252 266 -139 139 -248 253 -243 253 41 -1 647 94 670
104 27 12 49 51 180 320 82 168 152 306 155 306 3 0 73 -138 155 -306z"/>
<path d="M330 3343 c-56 -20 -78 -89 -42 -132 21 -26 265 -130 305 -131 66 0
104 97 55 142 -22 19 -272 128 -293 127 -5 0 -17 -3 -25 -6z"/>
<path d="M4620 3294 c-74 -30 -143 -65 -152 -76 -43 -49 -4 -138 60 -138 39 0
283 105 305 131 24 30 22 81 -5 107 -41 38 -64 35 -208 -24z"/>
<path d="M42 2423 c-17 -6 -42 -57 -42 -83 0 -12 13 -35 29 -51 l29 -29 241 0
c235 0 240 1 265 23 40 34 43 77 11 115 l-27 32 -246 -1 c-136 0 -253 -3 -260
-6z"/>
<path d="M4545 2398 c-32 -38 -29 -81 11 -115 25 -22 30 -23 265 -23 l241 0
29 29 c16 16 29 39 29 51 0 29 -26 76 -45 84 -9 3 -126 6 -260 6 l-243 0 -27
-32z"/>
</g>
</svg>
